<?xml version="1.0" encoding="UTF-8" standalone="no"?>
<!-- Created with Inkscape (http://www.inkscape.org/) -->

<svg
   xmlns:dc="http://purl.org/dc/elements/1.1/"
   xmlns:cc="http://creativecommons.org/ns#"
   xmlns:rdf="http://www.w3.org/1999/02/22-rdf-syntax-ns#"
   xmlns:svg="http://www.w3.org/2000/svg"
   xmlns="http://www.w3.org/2000/svg"
   xmlns:sodipodi="http://sodipodi.sourceforge.net/DTD/sodipodi-0.dtd"
   xmlns:inkscape="http://www.inkscape.org/namespaces/inkscape"
   width="157.5759mm"
   height="44.644302mm"
   viewBox="0 0 558.33979 158.18847"
   id="svg2"
   version="1.1"
   inkscape:version="0.91 r13725"
   sodipodi:docname="logo.svg">
  <defs
     id="defs4" />
  <sodipodi:namedview
     id="base"
     pagecolor="#ffffff"
     bordercolor="#666666"
     borderopacity="1.0"
     inkscape:pageopacity="0.0"
     inkscape:pageshadow="2"
     inkscape:zoom="0.35"
     inkscape:cx="294.16991"
     inkscape:cy="70.52281"
     inkscape:document-units="px"
     inkscape:current-layer="layer1"
     showgrid="false"
     fit-margin-top="0"
     fit-margin-left="0"
     fit-margin-right="0"
     fit-margin-bottom="0"
     inkscape:window-width="2048"
     inkscape:window-height="809"
     inkscape:window-x="-8"
     inkscape:window-y="-8"
     inkscape:window-maximized="1" />
  <metadata
     id="metadata7">
    <rdf:RDF>
      <cc:Work
         rdf:about="">
        <dc:format>image/svg+xml</dc:format>
        <dc:type
           rdf:resource="http://purl.org/dc/dcmitype/StillImage" />
        <dc:title></dc:title>
      </cc:Work>
    </rdf:RDF>
  </metadata>
  <g
     inkscape:label="Layer 1"
     inkscape:groupmode="layer"
     id="layer1"
     transform="translate(-80.830093,-444.69654)">
    <g
       id="surface3653"
       transform="matrix(1.2499999,0,0,1.25,-166.1816,151.74244)">
      <path
         id="path3339"
         d="m 343.59766,296.16797 6.40625,0 0,35.24609 -6.40625,0 z m 0,0"
         style="fill:#1e234a;fill-opacity:1;fill-rule:nonzero;stroke:none"
         inkscape:connector-curvature="0" />
      <path
         id="path3341"
         d="m 361.41797,296.16797 6.40234,0 13.35547,20.35547 c 1.33984,2.03515 2.92969,5.46093 2.92969,5.46093 l 0.0976,0 c 0,0 -0.34765,-3.375 -0.34765,-5.46093 l 0,-20.35547 6.35156,0 0,35.25 -6.35156,0 L 370.5,311.11328 c -1.33984,-2.03516 -2.92969,-5.46094 -2.92969,-5.46094 l -0.0976,0 c 0,0 0.34765,3.375 0.34765,5.46094 l 0,20.30469 -6.40234,0 z m 0,0"
         style="fill:#1e234a;fill-opacity:1;fill-rule:nonzero;stroke:none"
         inkscape:connector-curvature="0" />
      <path
         id="path3343"
         d="m 402.41406,322.37891 c 0,0 3.82422,3.72656 8.78516,3.72656 2.67969,0 5.11328,-1.39063 5.11328,-4.26953 0,-6.30469 -16.62891,-5.21485 -16.62891,-16.03516 0,-5.85937 5.0625,-10.22656 11.81641,-10.22656 6.94531,0 10.51953,3.77344 10.51953,3.77344 l -2.77734,5.21093 c 0,0 -3.375,-3.07812 -7.79688,-3.07812 -2.97656,0 -5.30859,1.73828 -5.30859,4.21875 0,6.25781 16.58203,4.71875 16.58203,15.98828 0,5.60547 -4.27344,10.32422 -11.61719,10.32422 -7.84375,0 -12.16406,-4.81641 -12.16406,-4.81641 z m 0,0"
         style="fill:#1e234a;fill-opacity:1;fill-rule:nonzero;stroke:none"
         inkscape:connector-curvature="0" />
      <path
         id="path3345"
         d="m 431.59766,296.16797 6.40234,0 0,35.24609 -6.40234,0 z m 0,0"
         style="fill:#1e234a;fill-opacity:1;fill-rule:nonzero;stroke:none"
         inkscape:connector-curvature="0" />
      <path
         id="path3347"
         d="m 465.19922,295.57422 c 8.64062,0 13.10547,4.46875 13.10547,4.46875 l -3.17578,4.76562 c 0,0 -3.77344,-3.375 -9.38282,-3.375 -7.89062,0 -12.11328,5.46094 -12.11328,12.10938 0,7.64844 5.21094,12.61328 11.81641,12.61328 5.3125,0 8.83594,-3.67578 8.83594,-3.67578 l 0,-4.1211 -5.41016,0 0,-5.51171 11.16797,0 0,18.5664 -5.46094,0 0,-1.6875 c 0,-0.74219 0.0508,-1.48828 0.0508,-1.48828 l -0.10156,0 c 0,0 -3.67188,3.77344 -10.22656,3.77344 -9.28125,0 -17.27344,-7.19922 -17.27344,-18.26953 0,-10.22266 7.69531,-18.16797 18.16797,-18.16797"
         style="fill:#1e234a;fill-opacity:1;fill-rule:nonzero;stroke:none"
         inkscape:connector-curvature="0" />
      <path
         id="path3349"
         d="m 489.61719,296.16797 6.40234,0 0,14.94531 16.13281,0 0,-14.94531 6.40625,0 0,35.25 -6.40625,0 0,-14.79297 -16.13281,0 0,14.79297 -6.40234,0 z m 0,0"
         style="fill:#1e234a;fill-opacity:1;fill-rule:nonzero;stroke:none"
         inkscape:connector-curvature="0" />
      <path
         id="path3351"
         d="m 537.26172,301.67969 -11.5625,0 0,-5.51172 29.53515,0 0,5.51172 -11.5664,0 0,29.73437 -6.40625,0 z m 0,0"
         style="fill:#1e234a;fill-opacity:1;fill-rule:nonzero;stroke:none"
         inkscape:connector-curvature="0" />
      <path
         id="path3353"
         d="m 563.17187,322.37891 c 0,0 3.82422,3.72656 8.78907,3.72656 2.67968,0 5.10937,-1.39063 5.10937,-4.26953 0,-6.30469 -16.6289,-5.21485 -16.6289,-16.03516 0,-5.85937 5.0664,-10.22656 11.8164,-10.22656 6.94922,0 10.52344,3.77344 10.52344,3.77344 l -2.77734,5.21093 c 0,0 -3.37891,-3.07812 -7.79688,-3.07812 -2.97656,0 -5.3125,1.73828 -5.3125,4.21875 0,6.25781 16.58203,4.71875 16.58203,15.98828 0,5.60547 -4.26953,10.32422 -11.61719,10.32422 -7.84375,0 -12.16015,-4.81641 -12.16015,-4.81641 z m 0,0"
         style="fill:#1e234a;fill-opacity:1;fill-rule:nonzero;stroke:none"
         inkscape:connector-curvature="0" />
      <path
         id="path3355"
         d="m 356.01172,263.58984 c 3.72265,0 5.91015,-2.38672 5.91015,-6.05859 0,-3.625 -2.1875,-5.95703 -5.80859,-5.95703 l -6.10937,0 0,12.01562 z m -12.41016,-17.52734 13.60156,0 c 6.60157,0 11.21875,4.61719 11.21875,11.46875 0,6.85156 -4.61718,11.61719 -11.21875,11.61719 l -7.19921,0 0,12.16015 -6.40235,0 z m 0,0"
         style="fill:#f04235;fill-opacity:1;fill-rule:nonzero;stroke:none"
         inkscape:connector-curvature="0" />
      <path
         id="path3357"
         d="m 388.71875,262.59375 c 3.42969,0 5.5625,-2.03516 5.5625,-5.55859 0,-3.37891 -1.44141,-5.46094 -6.45313,-5.46094 l -4.86718,0 0,11.01953 z m -12.16016,-16.53125 11.36719,0 c 3.82422,0 5.5625,0.30078 7.10156,0.99609 3.52344,1.58594 5.75782,4.96094 5.75782,9.62891 0,4.21875 -2.23438,8.14062 -5.96094,9.62891 l 0,0.10156 c 0,0 0.5,0.49609 1.19531,1.73437 l 7.24609,13.15625 -7.14843,0 -7,-13.15625 -6.15625,0 0,13.15625 -6.40235,0 z m 0,0"
         style="fill:#f04235;fill-opacity:1;fill-rule:nonzero;stroke:none"
         inkscape:connector-curvature="0" />
      <path
         id="path3359"
         d="m 411.69922,246.0625 21.09765,0 0,5.51172 -14.69531,0 0,9.23437 11.86328,0 0,5.50782 -11.86328,0 0,9.48046 15.49219,0 0,5.51172 -21.89453,0 z m 0,0"
         style="fill:#f04235;fill-opacity:1;fill-rule:nonzero;stroke:none"
         inkscape:connector-curvature="0" />
      <path
         id="path3361"
         d="m 454.38281,275.79687 c 7.14844,0 11.71485,-4.21484 11.71485,-12.16015 0,-7.84375 -4.66407,-12.0625 -11.71485,-12.0625 l -5.26172,0 0,24.22265 z m -11.66406,-29.73437 12.01172,0 c 10.87109,0 17.97265,6.45312 17.97265,17.57422 0,11.12109 -7.10156,17.67187 -17.97265,17.67187 l -12.01172,0 z m 0,0"
         style="fill:#f04235;fill-opacity:1;fill-rule:nonzero;stroke:none"
         inkscape:connector-curvature="0" />
      <path
         id="path3363"
         d="m 481.87891,246.0625 6.40234,0 0,35.24609 -6.40234,0 z m 0,0"
         style="fill:#f04235;fill-opacity:1;fill-rule:nonzero;stroke:none"
         inkscape:connector-curvature="0" />
      <path
         id="path3365"
         d="m 515.38281,245.46875 c 8.58594,0 13.00781,4.8125 13.00781,4.8125 l -3.07812,4.76562 c 0,0 -4.02344,-3.72265 -9.63281,-3.72265 -7.44532,0 -11.81641,5.5625 -11.81641,12.11328 0,6.70312 4.51953,12.60937 11.86719,12.60937 6.10547,0 10.22656,-4.46875 10.22656,-4.46875 l 3.375,4.6211 c 0,0 -4.86328,5.70703 -13.85156,5.70703 -10.77344,0 -18.21485,-7.99219 -18.21485,-18.36719 0,-10.22656 7.74219,-18.07031 18.11719,-18.07031"
         style="fill:#f04235;fill-opacity:1;fill-rule:nonzero;stroke:none"
         inkscape:connector-curvature="0" />
      <path
         id="path3367"
         d="m 545.01172,251.57422 -11.56641,0 0,-5.51172 29.53516,0 0,5.51172 -11.56641,0 0,29.73437 -6.40234,0 z m 0,0"
         style="fill:#f04235;fill-opacity:1;fill-rule:nonzero;stroke:none"
         inkscape:connector-curvature="0" />
      <path
         id="path3369"
         d="m 570.12891,246.0625 6.40234,0 0,35.24609 -6.40234,0 z m 0,0"
         style="fill:#f04235;fill-opacity:1;fill-rule:nonzero;stroke:none"
         inkscape:connector-curvature="0" />
      <path
         id="path3371"
         d="m 583.42578,246.0625 6.89844,0 7.74609,22.98828 c 0.69531,2.03516 1.29297,5.16016 1.33985,5.16016 l 0.0976,0 c 0.0547,0 0.64844,-3.125 1.34375,-5.16016 l 7.79297,-22.98828 6.85156,0 -12.85937,35.24609 -6.35547,0 z m 0,0"
         style="fill:#f04235;fill-opacity:1;fill-rule:nonzero;stroke:none"
         inkscape:connector-curvature="0" />
      <path
         id="path3373"
         d="m 622.39062,246.0625 21.09375,0 0,5.51172 -14.6914,0 0,9.23437 11.86328,0 0,5.50782 -11.86328,0 0,9.48046 15.48828,0 0,5.51172 -21.89063,0 z m 0,0"
         style="fill:#f04235;fill-opacity:1;fill-rule:nonzero;stroke:none"
         inkscape:connector-curvature="0" />
      <path
         id="path3375"
         d="m 211.35547,301.67187 13.39844,0 0,-13.32031 -13.39844,0 z m 59.90625,29.78907 -13.75,0 0,-33.65625 6.875,0 c 9.15625,0 30.46094,-2.42188 30.46094,-24.84375 0,-22.42969 -21.30469,-24.85157 -30.46094,-24.85157 -12.71485,0 -20.91406,0.0977 -25.88281,0.19141 l 0,67.12109 -40.89454,0 0,-40.82031 27.14454,0 0,-39.53515 6.53515,-0.32422 c 0.3086,-0.0156 7.91406,-0.37891 33.09766,-0.37891 26.85547,0 44.21094,15.14844 44.21094,38.59766 0,21.3789 -14.42969,35.85937 -37.33594,38.24218 z m 0,0"
         style="fill:#66cabf;fill-opacity:1;fill-rule:nonzero;stroke:none"
         inkscape:connector-curvature="0" />
      <path
         id="path3377"
         d="m 271.21094,279.76953 -13.65235,0 0,-13.65234 13.65235,0 z m 0,0"
         style="fill:#f04235;fill-opacity:1;fill-rule:evenodd;stroke:none"
         inkscape:connector-curvature="0" />
      <path
         id="path3379"
         d="m 271.21094,360.91406 -13.65235,0 0,-13.65234 13.65235,0 z m 0,0"
         style="fill:#1e234a;fill-opacity:1;fill-rule:evenodd;stroke:none"
         inkscape:connector-curvature="0" />
    </g>
  </g>
</svg>
